<svg width="26" height="26" viewBox="0 0 26 26" fill="none" xmlns="http://www.w3.org/2000/svg">
<path d="M22.75 7.94838H18.4925L18.8955 3.32038C18.9345 2.87405 18.603 2.4808 18.1567 2.44072C17.7049 2.40822 17.316 2.73322 17.277 3.18063L16.8621 7.9473H10.0154L10.4163 3.32147C10.4563 2.87405 10.1238 2.4808 9.67958 2.44072C9.22458 2.40822 8.83783 2.73322 8.79883 3.18063L8.385 7.9473H4.09717C3.64867 7.9473 3.28467 8.31238 3.28467 8.7598C3.28467 9.20722 3.64867 9.5723 4.09717 9.5723H8.24417L7.64833 16.4265H3.25C2.8015 16.4265 2.4375 16.7905 2.4375 17.239C2.4375 17.6875 2.8015 18.0515 3.25 18.0515H7.5075L7.1045 22.6795C7.0655 23.1259 7.397 23.5191 7.84333 23.5592L7.91483 23.5625C8.33192 23.5625 8.68617 23.2429 8.723 22.8193L9.13792 18.0526H15.9846L15.5838 22.6785C15.5448 23.1259 15.8763 23.5191 16.3226 23.5592L16.3941 23.5625C16.8112 23.5625 17.1654 23.2429 17.2023 22.8193L17.6161 18.0526H21.9028C22.3503 18.0526 22.7153 17.6875 22.7153 17.2401C22.7153 16.7927 22.3503 16.4276 21.9028 16.4276H17.7558L18.3517 9.57338H22.75C23.1985 9.57338 23.5625 9.20938 23.5625 8.76088C23.5625 8.31238 23.1985 7.94838 22.75 7.94838V7.94838ZM16.1254 16.4265H9.27875L9.87458 9.57338H16.7213L16.1254 16.4265Z" fill="white"/>
</svg>
