<svg width="26" height="23" viewBox="0 0 26 23" fill="none" xmlns="http://www.w3.org/2000/svg">
<path d="M24.4616 6.96247L13.5145 1.05505C13.1927 0.881715 12.806 0.881715 12.4853 1.05505L1.54366 6.96247C1.01716 7.24847 0.82108 7.90497 1.10491 8.43147C1.29991 8.79438 1.67366 9.00022 2.05825 9.00022C2.23158 9.00022 2.40925 8.95905 2.57283 8.87022L3.368 8.44122L5.0905 20.6287C5.3245 21.9439 6.50966 22.8625 7.97216 22.8625H18.0277C19.4902 22.8625 20.6753 21.9439 20.9115 20.6005L22.6318 8.44013L23.4302 8.8713C23.9557 9.15622 24.6132 8.96013 24.8971 8.43363C25.182 7.90713 24.9837 7.24955 24.4594 6.96572L24.4616 6.96247ZM12.9999 15.7212C11.0553 15.7212 9.47908 14.145 9.47908 12.2004C9.47908 10.2558 11.0553 8.67955 12.9999 8.67955C14.9445 8.67955 16.5207 10.2558 16.5207 12.2004C16.5207 14.145 14.9445 15.7212 12.9999 15.7212Z" fill="white"/>
</svg>
