<svg width="26" height="26" viewBox="0 0 26 26" fill="none" xmlns="http://www.w3.org/2000/svg">
<path d="M21.3959 23.8334H4.60425C3.26091 23.8334 2.16675 22.7392 2.16675 21.3959V4.60425C2.16675 3.26091 3.26091 2.16675 4.60425 2.16675H21.3959C22.7392 2.16675 23.8334 3.26091 23.8334 4.60425V21.3959C23.8334 22.7392 22.7392 23.8334 21.3959 23.8334ZM4.60425 3.79175C4.15575 3.79175 3.79175 4.15683 3.79175 4.60425V21.3959C3.79175 21.8433 4.15575 22.2084 4.60425 22.2084H21.3959C21.8444 22.2084 22.2084 21.8433 22.2084 21.3959V4.60425C22.2084 4.15683 21.8444 3.79175 21.3959 3.79175H4.60425Z" fill="white"/>
<path d="M18.4168 9.36011H7.5835C7.135 9.36011 6.771 8.99502 6.771 8.54761C6.771 8.10019 7.135 7.73511 7.5835 7.73511H18.4168C18.8653 7.73511 19.2293 8.09802 19.2293 8.54761C19.2293 8.99719 18.8653 9.36011 18.4168 9.36011ZM18.4168 13.8126H7.5835C7.135 13.8126 6.771 13.4486 6.771 13.0001C6.771 12.5516 7.135 12.1876 7.5835 12.1876H18.4168C18.8653 12.1876 19.2293 12.5516 19.2293 13.0001C19.2293 13.4486 18.8653 13.8126 18.4168 13.8126ZM13.0002 18.2651H7.5835C7.135 18.2651 6.771 17.9022 6.771 17.4526C6.771 17.003 7.135 16.6401 7.5835 16.6401H13.0002C13.4487 16.6401 13.8127 17.0052 13.8127 17.4526C13.8127 17.9 13.4487 18.2651 13.0002 18.2651Z" fill="white"/>
</svg>
