<svg width="26" height="26" viewBox="0 0 26 26" fill="none" xmlns="http://www.w3.org/2000/svg">
<path d="M18.4167 14.625C19.3142 14.625 20.0417 13.8975 20.0417 13C20.0417 12.1025 19.3142 11.375 18.4167 11.375C17.5193 11.375 16.7917 12.1025 16.7917 13C16.7917 13.8975 17.5193 14.625 18.4167 14.625Z" fill="white"/>
<path d="M13 14.625C13.8975 14.625 14.625 13.8975 14.625 13C14.625 12.1025 13.8975 11.375 13 11.375C12.1025 11.375 11.375 12.1025 11.375 13C11.375 13.8975 12.1025 14.625 13 14.625Z" fill="white"/>
<path d="M7.5835 14.625C8.48096 14.625 9.2085 13.8975 9.2085 13C9.2085 12.1025 8.48096 11.375 7.5835 11.375C6.68603 11.375 5.9585 12.1025 5.9585 13C5.9585 13.8975 6.68603 14.625 7.5835 14.625Z" fill="white"/>
<path d="M13.0001 24.6459C6.57808 24.6459 1.35425 19.4221 1.35425 13.0001C1.35425 6.57808 6.57808 1.35425 13.0001 1.35425C19.4221 1.35425 24.6459 6.57808 24.6459 13.0001C24.6459 19.4221 19.4221 24.6459 13.0001 24.6459ZM13.0001 2.97925C7.47508 2.97925 2.97925 7.47508 2.97925 13.0001C2.97925 18.5251 7.47508 23.0209 13.0001 23.0209C18.5251 23.0209 23.0209 18.5251 23.0209 13.0001C23.0209 7.47508 18.5251 2.97925 13.0001 2.97925Z" fill="white"/>
</svg>
